<?xml version="1.0" standalone="no"?>
<!DOCTYPE svg PUBLIC "-//W3C//DTD SVG 20010904//EN"
 "http://www.w3.org/TR/2001/REC-SVG-20010904/DTD/svg10.dtd">
<svg version="1.0" xmlns="http://www.w3.org/2000/svg"
 width="400.000000pt" height="229.000000pt" viewBox="0 0 400.000000 229.000000"
 preserveAspectRatio="xMidYMid meet">

<g transform="translate(0.000000,229.000000) scale(0.100000,-0.100000)"
fill="#000000" stroke="none">
<path d="M1982 2077 c-9 -10 5 -29 58 -82 39 -38 70 -73 70 -77 0 -5 -27 -8
-60 -8 -53 0 -60 -2 -60 -19 0 -18 9 -20 115 -23 63 -2 115 -1 115 2 0 8 -214
220 -221 220 -4 0 -11 -6 -17 -13z"/>
<path d="M1655 1755 l-260 -254 118 -1 c110 0 117 1 117 20 0 18 -7 20 -60 20
-33 0 -60 3 -60 8 -1 4 82 87 182 184 l183 177 3 -65 c3 -56 5 -64 22 -64 19
0 20 8 20 115 0 63 -1 115 -2 115 -2 -1 -120 -115 -263 -255z"/>
<path d="M2195 1750 c-38 -38 -74 -70 -79 -70 -5 0 -6 26 -3 60 7 59 6 60 -18
60 l-25 0 0 -117 0 -118 114 114 c96 96 112 116 101 128 -8 7 -15 13 -17 13
-2 0 -35 -31 -73 -70z"/>
<path d="M1750 1718 c0 -3 118 -121 263 -262 l262 -256 3 111 c1 62 1 113 0
114 -2 2 -12 5 -23 7 -18 3 -21 -4 -25 -58 l-5 -61 -182 176 c-101 97 -183
180 -183 184 0 4 27 7 60 7 53 0 60 2 60 19 0 18 -9 20 -115 23 -63 2 -115 0
-115 -4z"/>
<path d="M2235 1615 l-120 -115 128 0 127 0 0 25 c0 24 -3 25 -60 25 -33 0
-60 4 -60 9 0 5 32 38 72 74 63 57 71 67 59 81 -7 9 -16 16 -20 16 -3 -1 -60
-52 -126 -115z"/>
<path d="M1697 1548 c1 -106 3 -113 22 -116 19 -3 21 2 21 57 0 34 3 61 7 61
10 0 363 -353 363 -362 0 -4 -27 -8 -60 -8 -53 0 -60 -2 -60 -20 0 -19 7 -20
118 -20 l117 1 -263 259 c-144 143 -263 260 -265 260 -1 0 -1 -51 0 -112z"/>
<path d="M2430 1539 l0 -119 25 0 c24 0 25 3 25 62 l0 62 75 -74 c66 -65 77
-73 89 -60 13 13 1 29 -100 132 l-114 116 0 -119z"/>
<path d="M1342 1447 c-9 -10 15 -39 103 -127 l115 -115 0 118 0 117 -25 0
c-24 0 -25 -3 -25 -62 l0 -62 -73 72 c-40 39 -75 72 -79 72 -3 0 -10 -6 -16
-13z"/>
<path d="M1620 1329 l0 -30 58 2 c33 2 55 -1 53 -7 -2 -5 -32 -35 -67 -67 -67
-61 -74 -76 -49 -97 13 -11 33 4 130 101 63 62 115 117 115 121 0 4 -54 8
-120 8 l-120 0 0 -31z"/>
<path d="M2350 1340 c0 -18 7 -20 65 -20 36 0 65 -2 65 -4 0 -6 -361 -361
-370 -364 -6 -2 -10 23 -10 57 0 54 -2 61 -20 61 -19 0 -20 -7 -20 -117 l0
-117 203 199 c111 109 231 227 267 262 l65 63 -123 0 c-115 0 -122 -1 -122
-20z"/>
<path d="M1802 1182 c-62 -59 -112 -112 -112 -118 0 -6 7 -17 16 -24 13 -12
26 -3 90 61 l74 73 0 -62 c0 -59 1 -62 25 -62 l25 0 0 120 c0 66 -1 120 -2
120 -2 -1 -54 -49 -116 -108z"/>
<path d="M1877 878 c98 -98 114 -110 128 -98 14 12 8 22 -62 92 l-78 78 68 0
c60 0 67 2 67 20 0 19 -7 20 -117 20 l-118 0 112 -112z"/>
<path d="M1608 744 c-5 -4 -8 -49 -8 -101 0 -99 -9 -114 -36 -60 -21 41 -21
40 -33 32 -7 -4 -3 -16 10 -34 12 -16 19 -37 17 -47 -4 -15 -8 -11 -23 18 -19
38 -19 38 -37 18 -21 -22 -38 -19 -38 8 0 9 -9 28 -20 42 -16 21 -20 22 -20 7
0 -10 10 -35 22 -56 19 -33 20 -43 10 -65 -6 -14 -26 -35 -44 -46 -18 -11 -27
-20 -20 -20 24 0 51 20 67 48 8 15 21 36 30 46 14 19 15 18 36 -8 15 -20 25
-24 32 -17 6 6 21 11 34 11 13 0 26 6 29 13 8 21 0 220 -8 211z"/>
<path d="M1658 744 c-5 -4 -8 -70 -8 -146 0 -134 1 -139 22 -147 12 -4 31 -5
43 -2 19 5 19 6 -2 9 -12 2 -26 9 -32 16 -6 7 -12 72 -13 145 -2 73 -6 129
-10 125z"/>
<path d="M1780 700 c0 -5 5 -10 10 -10 6 0 10 5 10 10 0 6 -4 10 -10 10 -5 0
-10 -4 -10 -10z"/>
<path d="M986 678 c-23 -32 -20 -51 14 -83 17 -16 30 -32 30 -37 0 -4 -24 -8
-53 -8 -53 0 -79 11 -91 40 -3 8 -4 -1 -1 -20 3 -19 9 -37 13 -41 4 -4 42 -9
85 -11 76 -3 77 -3 77 21 0 16 -15 41 -41 67 -24 25 -38 47 -34 54 5 8 14 5
31 -11 34 -32 42 -16 11 21 l-26 30 -15 -22z"/>
<path d="M1213 677 c-40 -46 -46 -61 -13 -32 19 16 39 33 43 36 5 4 5 9 -1 13
-5 3 -18 -5 -29 -17z"/>
<path d="M2592 657 c-7 -8 -6 -18 4 -31 25 -35 10 -51 -19 -21 -13 12 -16 12
-20 1 -8 -19 1 -26 34 -26 17 0 32 -7 38 -17 8 -17 2 -18 -96 -13 -89 4 -107
8 -119 24 -8 11 -14 25 -14 31 0 16 30 42 55 48 18 4 18 5 -2 6 -12 0 -34 -9
-49 -22 -22 -19 -25 -28 -19 -55 11 -51 37 -62 142 -62 51 0 95 -4 98 -10 11
-18 25 0 25 33 0 44 -44 131 -58 114z"/>
<path d="M1080 633 c0 -12 9 -40 21 -62 18 -35 19 -43 7 -68 -7 -15 -29 -36
-48 -45 -21 -11 -28 -18 -17 -18 29 0 56 18 73 51 l15 30 140 -3 139 -3 0 26
c0 43 -16 49 -131 49 -75 0 -109 4 -111 12 -3 7 -7 6 -11 -5 -6 -15 4 -17 106
-17 114 0 137 -7 137 -39 0 -12 -3 -12 -12 -3 -8 8 -52 12 -134 12 l-122 0
-26 53 c-17 36 -25 45 -26 30z"/>
<path d="M1748 613 c-40 -42 -60 -77 -51 -87 12 -12 73 -6 73 7 0 9 2 9 8 0 4
-7 48 -12 114 -15 l108 -3 5 26 c4 15 -2 43 -15 70 l-21 44 4 -35 c2 -19 7
-43 12 -52 6 -16 -1 -18 -89 -18 l-96 0 -1 38 c-1 20 -1 43 0 50 3 21 -14 13
-51 -25z m32 -33 c0 -25 -4 -30 -25 -30 -29 0 -32 16 -8 42 23 26 33 22 33
-12z"/>
<path d="M2215 638 c-3 -9 -2 -25 4 -37 35 -65 -13 -68 -53 -3 l-28 47 -15
-28 c-8 -16 -13 -42 -11 -60 3 -29 6 -32 41 -35 44 -4 46 -14 11 -48 -14 -15
-19 -24 -12 -22 7 3 22 18 33 36 20 30 21 31 92 28 69 -2 72 -1 76 23 3 15 -3
44 -14 66 -18 37 -19 38 -15 10 3 -16 8 -38 12 -49 5 -14 3 -17 -11 -15 -12 3
-26 23 -37 54 -17 45 -18 47 -15 15 2 -19 7 -43 12 -52 5 -14 2 -18 -12 -18
-14 0 -23 13 -35 53 -11 37 -18 47 -23 35z m-45 -82 c0 -3 -9 -6 -20 -6 -23 0
-35 22 -26 46 5 14 9 12 26 -9 11 -14 20 -28 20 -31z"/>
<path d="M2020 628 c0 -7 11 -35 25 -62 18 -36 25 -43 25 -27 0 25 -27 88 -41
97 -5 3 -9 -1 -9 -8z"/>
<path d="M2656 632 c-3 -6 5 -27 19 -48 14 -20 25 -40 25 -45 0 -25 -24 -62
-52 -79 -19 -12 -26 -20 -17 -20 22 0 66 36 74 61 6 19 15 20 153 19 81 -1
152 -1 159 0 7 0 17 10 24 22 10 18 9 20 -5 15 -10 -4 -20 1 -26 13 -10 18
-22 20 -115 20 -57 0 -106 -3 -108 -7 -3 -5 41 -7 98 -5 98 3 104 2 115 -19
11 -19 10 -21 -5 -16 -9 4 -61 7 -115 7 -67 0 -103 4 -110 13 -6 6 -18 21 -26
32 -15 19 -15 18 -10 -12 6 -39 -18 -47 -28 -10 -9 32 -42 72 -50 59z"/>
<path d="M3068 599 c-19 -32 -13 -64 15 -88 13 -10 17 -9 26 8 16 28 13 52 -7
83 l-17 27 -17 -30z m32 -39 c6 -11 8 -25 4 -32 -6 -10 -33 25 -34 45 0 15 20
6 30 -13z"/>
<path d="M2046 495 c-3 -8 -20 -24 -38 -35 -23 -14 -27 -20 -15 -20 19 0 67
42 67 60 0 15 -7 12 -14 -5z"/>
<path d="M958 483 c6 -2 18 -2 25 0 6 3 1 5 -13 5 -14 0 -19 -2 -12 -5z"/>
<path d="M1880 480 c0 -5 5 -10 10 -10 6 0 10 5 10 10 0 6 -4 10 -10 10 -5 0
-10 -4 -10 -10z"/>
<path d="M934 336 c-54 -24 -67 -102 -26 -148 17 -20 77 -24 102 -8 10 7 4 8
-20 4 -53 -9 -77 25 -72 104 1 13 15 30 35 42 37 23 27 26 -19 6z"/>
<path d="M2165 342 c-5 -4 -10 -44 -11 -89 0 -69 2 -83 15 -83 13 0 15 11 13
62 -4 105 -6 118 -17 110z"/>
<path d="M2496 332 c-23 -27 -29 -162 -6 -162 12 0 14 11 12 49 -3 41 -1 50
15 54 16 4 16 5 1 6 -12 1 -18 9 -18 26 0 29 27 45 42 24 8 -12 9 -11 5 1 -6
22 -31 23 -51 2z"/>
<path d="M1001 328 c9 -7 19 -20 23 -28 3 -8 4 -4 3 10 -1 16 -9 26 -22 28
-18 3 -18 3 -4 -10z"/>
<path d="M1608 255 c-3 -84 -3 -85 21 -85 20 0 22 2 11 15 -9 11 -11 37 -8 85
4 53 2 70 -8 70 -9 0 -13 -24 -16 -85z"/>
<path d="M1750 301 c4 -22 4 -60 0 -85 l-7 -46 41 0 c23 0 49 7 59 14 21 16
22 62 2 70 -14 5 -14 8 1 31 24 36 5 55 -56 55 l-47 0 7 -39z m78 5 c3 -11 -3
-25 -13 -32 -15 -11 -15 -13 0 -21 26 -15 16 -67 -12 -71 -22 -3 -23 -1 -23
73 0 73 1 76 22 73 13 -2 24 -11 26 -22z"/>
<path d="M2622 320 c-16 -25 -4 -50 38 -80 34 -24 38 -44 13 -59 -17 -10 -17
-10 -1 -11 10 0 25 11 33 24 20 31 8 59 -36 82 -25 12 -30 21 -26 40 5 29 -4
31 -21 4z"/>
<path d="M2691 323 c7 -10 15 -20 16 -22 2 -2 3 5 3 17 0 14 -6 22 -16 22 -14
0 -15 -3 -3 -17z"/>
<path d="M2962 328 c6 -18 28 -21 28 -4 0 9 -7 16 -16 16 -9 0 -14 -5 -12 -12z"/>
<path d="M1324 299 c-5 -8 -8 -40 -6 -71 3 -51 6 -58 25 -58 16 0 18 3 9 12
-19 19 -15 86 6 91 15 4 15 5 0 6 -9 0 -18 8 -20 18 -2 13 -5 14 -14 2z"/>
<path d="M1113 279 c25 -14 21 -29 -8 -29 -19 0 -23 4 -19 18 5 14 3 14 -10
-2 -18 -23 -20 -49 -6 -77 12 -21 55 -26 66 -7 5 8 2 9 -9 5 -10 -4 -22 2 -31
15 -19 27 -12 38 25 38 17 0 29 5 29 13 0 18 -21 37 -39 37 -13 -1 -13 -2 2
-11z"/>
<path d="M1532 269 c10 -17 10 -23 1 -26 -7 -3 -23 -13 -35 -22 -24 -20 -19
-51 7 -51 12 0 13 4 6 18 -7 13 -6 23 1 30 18 18 26 14 30 -15 2 -14 8 -28 14
-30 15 -5 5 99 -10 109 -20 14 -26 8 -14 -13z"/>
<path d="M1942 270 c11 -17 10 -22 -2 -30 -12 -8 -12 -10 -1 -10 9 0 12 -8 9
-24 -4 -21 7 -36 26 -36 9 0 -9 106 -18 112 -20 14 -26 8 -14 -12z"/>
<path d="M2071 281 c-7 -5 -21 -6 -31 -4 -15 4 -19 -3 -22 -51 -2 -47 0 -56
14 -56 13 0 15 7 11 38 -4 28 -1 42 12 52 23 19 37 -3 33 -52 -3 -29 0 -38 12
-38 12 0 14 10 12 50 -4 52 -19 74 -41 61z"/>
<path d="M2357 272 c-20 -22 -22 -73 -5 -90 20 -20 27 -13 16 16 -15 38 -3 84
20 80 13 -3 17 -14 17 -56 0 -28 2 -52 4 -52 11 0 30 38 31 61 0 28 -27 59
-52 59 -8 0 -22 -8 -31 -18z"/>
<path d="M3076 278 c5 -7 9 -33 10 -58 0 -31 5 -46 15 -48 24 -4 12 96 -13
109 -16 9 -19 8 -12 -3z"/>
<path d="M1187 241 c4 -26 1 -46 -7 -56 -10 -13 -9 -15 11 -15 22 0 24 4 23
52 -1 39 -6 54 -17 56 -12 3 -14 -5 -10 -37z"/>
<path d="M1240 265 c7 -8 10 -32 8 -55 -3 -31 0 -40 12 -40 12 0 14 11 12 55
-3 47 -7 55 -24 55 -17 0 -18 -3 -8 -15z"/>
<path d="M1398 225 c-3 -52 -2 -55 21 -55 19 0 21 3 12 14 -7 9 -9 29 -5 55 5
33 4 41 -9 41 -11 0 -16 -14 -19 -55z"/>
<path d="M1445 270 c-3 -5 -1 -10 4 -10 6 0 11 5 11 10 0 6 -2 10 -4 10 -3 0
-8 -4 -11 -10z"/>
<path d="M1490 265 c0 -8 2 -15 4 -15 2 0 6 7 10 15 3 8 1 15 -4 15 -6 0 -10
-7 -10 -15z"/>
<path d="M1900 265 c0 -8 2 -15 4 -15 2 0 6 7 10 15 3 8 1 15 -4 15 -6 0 -10
-7 -10 -15z"/>
<path d="M2202 256 c-14 -32 5 -86 31 -86 17 0 17 2 -2 29 -25 35 -26 39 -4
63 14 15 14 18 1 18 -8 0 -20 -11 -26 -24z"/>
<path d="M2749 263 c5 -10 17 -36 26 -58 l17 -40 13 35 c23 65 26 80 18 80 -5
0 -9 -10 -10 -21 -3 -39 -22 -46 -29 -11 -5 23 -12 32 -26 32 -15 0 -17 -4 -9
-17z"/>
<path d="M2868 225 c-3 -52 -2 -55 21 -55 19 0 21 3 12 14 -7 9 -9 29 -5 55 5
33 4 41 -9 41 -11 0 -16 -14 -19 -55z"/>
<path d="M2915 270 c-3 -5 -2 -10 4 -10 5 0 13 5 16 10 3 6 2 10 -4 10 -5 0
-13 -4 -16 -10z"/>
<path d="M2968 234 c3 -33 1 -49 -9 -55 -10 -6 -7 -9 11 -9 24 0 25 2 22 55
-3 36 -8 55 -17 55 -9 0 -11 -13 -7 -46z"/>
<path d="M3040 269 c0 -5 5 -7 10 -4 6 3 10 8 10 11 0 2 -4 4 -10 4 -5 0 -10
-5 -10 -11z"/>
<path d="M3047 225 c-23 -16 -19 -48 6 -53 16 -3 17 -1 6 16 -10 16 -10 23 0
36 16 19 12 20 -12 1z"/>
<path d="M1900 215 c-15 -18 -6 -45 15 -45 12 0 13 4 7 18 -5 9 -7 23 -5 30 6
16 -2 15 -17 -3z"/>
<path d="M2617 190 c3 -11 12 -20 19 -20 11 0 10 5 -3 20 -10 11 -18 20 -19
20 -1 0 0 -9 3 -20z"/>
<path d="M2740 128 c0 -11 28 -10 35 1 3 6 -4 9 -15 8 -11 -1 -20 -5 -20 -9z"/>
</g>
</svg>
